<svg xmlns="http://www.w3.org/2000/svg" viewBox="0 0 1000.79 238.51"><defs><style>.cls-1{fill:#fff;}</style></defs><title>canada-wordmark-white</title><g id="Layer_2" data-name="Layer 2"><g id="extras"><g id="wmms"><path class="cls-1" d="M951.07,1.44h36.37V74.17H951.07ZM888.14,37.8l-2.1.7S898.63,49,898.63,49.69c.69.7,1.39.7.69,2.8s-1.39,4.19-1.39,4.19,11.18-2.09,12.58-2.79c1.4,0,2.1,0,2.1,1.4s-.7,13.28-.7,13.28h3.5s-.7-12.58-.7-13.28c0-1.4.7-1.4,2.1-1.4s12.58,2.79,12.58,2.79A28.3,28.3,0,0,0,928,52.49c-.7-2.1,0-2.1.7-2.8S941.28,38.5,941.28,38.5l-2.1-.7c-1.39-.7-.69-1.4-.69-2.09s2.09-7.7,2.09-7.7-5.59,1.4-6.29,1.4-1.4,0-1.4-.7a17.83,17.83,0,0,0-1.4-3.49s-6.29,7-7,7.69c-1.4,1.4-2.8,0-2.1-1.4,0-1.4,3.5-16.08,3.5-16.08s-3.5,2.09-4.9,2.79-2.1.7-2.1-.7c-.69-1.39-4.89-9.09-4.89-9.79l-4.9,9.79c-.69,1.4-1.39,1.4-2.09.7-1.4-.7-4.9-2.79-4.9-2.79s3.5,14.68,3.5,16.08-.7,2.1-2.1,1.4l-7-7.69a10,10,0,0,1-1.4,2.79c0,.7-.7,1.4-1.4.7a60.38,60.38,0,0,1-7-1.4s2.1,7,2.79,7.7A2.79,2.79,0,0,1,888.14,37.8ZM841.28,1.44h36.37V74.17H841.28Z"/><path class="cls-1" d="M995.13,219.62A13.49,13.49,0,0,1,983.24,228c-4.2,0-16.78-.7-16.78-33.56V123.82c0-21.68-16.79-39.16-60.14-39.16-46.86,0-47.56,23.07-47.56,28.67-.69,6.29,2.8,13.28,14.69,13.28,10.49,0,13.29-11.88,14.69-16.08,1.39-4.89,2.09-18.88,21-18.88,16.09,0,25.88,14,26.58,34.27V137.1h0v.7c-1.4,7-4.9,10.49-11.19,13.29-8.39,4.2-32.87,7.69-35.67,8.39-9.79,2.1-37.06,9.09-36.36,37.76.7,28,28.67,37.77,48.25,37.07,18.88-.7,30.07-8.39,35-12.59,2.8-2.1,2.8-2.1,4.89.7,2.8,2.8,11.89,11.89,33.57,11.89,22.38,0,25.17-10.49,26.57-14C1001.42,218.22,996.53,216.13,995.13,219.62Zm-87.41,7.69c-19.58,0-24.48-16.08-24.48-24.47,0-7.69,4.2-23.78,23.78-35,0,0,9.09-5.59,26.57-12.58H935a2.44,2.44,0,0,1,.7,1.39h0v.7h0v.7h0v29.37C935.69,210.53,924.5,227.31,907.72,227.31Zm-64.34-.7c-2.8-.69-20.28,1.4-20.28-51.74V7.73c0-2.09,0-7.69-6.29-7.69s-48.25,2.1-51,2.8c-2.8,0-4.9,3.49,0,3.49C770.65,7,793,8.43,793,45.5v51c0,1.4,0,2.1-.7,2.8v.7h0c-.7.7-1.4,0-3.5-1.4-3.49-2.79-19.58-12.58-39.86-12.58-32.86,0-73.42,23.77-73.42,72.72,0,52.45,37.06,77.62,75.52,77.62,18.88,0,32.17-8.39,37.07-11.18,5.59-3.5,4.89-2.8,5.59,2.09.7,3.5,0,10.49,9.79,9.79,10.49-1.39,35.66-4.19,40.56-4.89C849,230.11,847.58,227.31,843.38,226.61Zm-86.71,2.1c-30.77,0-46.86-36.36-46.86-71.33,0-38.46,21.68-64.33,44.76-62.93C784.64,96.54,792.33,120.32,793,163v9.09C792.33,214,774.85,228.71,756.67,228.71Zm-81.82-9.09A13.49,13.49,0,0,1,663,228c-4.2,0-16.78-.7-16.78-33.56V123.82c0-21.68-16.79-39.16-60.14-39.16-46.86,0-47.55,23.07-47.55,28.67-.7,6.29,2.79,13.28,14.68,13.28,10.49,0,13.29-11.88,14.69-16.08,1.39-4.89,2.09-18.88,21-18.88,16.09,0,26.58,14,26.58,35v7c-.7,10.49-3.5,14-11.89,18.18s-32.87,7.69-35.66,8.39c-9.79,2.1-37.07,9.09-36.37,37.76.7,28,28.67,37.77,48.25,37.07,18.89-.7,30.07-8.4,35-12.59,2.8-2.1,2.8-2.1,4.89.7,2.8,2.8,11.89,11.89,33.57,11.89,22.38,0,25.18-10.49,26.57-14C681.14,218.22,677,216.13,674.85,219.62Zm-86.71,7.69c-19.58,0-24.48-16.08-24.48-24.47,0-7.69,4.2-23.78,23.78-35,0,0,9.09-5.59,26.57-12.58h1.4v.7h0v32.16C615.41,210.53,604.22,227.31,588.14,227.31Zm-67.14-.7c-5.59-1.39-15.38-7.69-15.38-38.46V132.21c0-13.29,1.4-47.55-51.05-47.55-27.27,0-42.66,14-44.06,14.68-2.09,2.1-3.49,2.8-4.19-.7-.7-2.79-2.1-7-2.8-9.79-.7-2.1-2.1-4.19-7-3.49s-35.67,5.59-41.26,7c-4.9,1.4-3.5,3.5,0,4.19s20.28,2.1,20.28,30.77v60.14c0,35-7,37.77-13.29,39.86-8.39,2.1-4.19,4.9-.7,4.9H425.2c4.19,0,6.29-4.2-2.1-5.6S407,220.32,407,193.05V154.59c0-14.69-3.5-59.44,37.06-60.14,28.67-.7,31.47,23.07,31.47,38.46v59.44c0,24.47-7,32.17-15.39,33.57-7.69,1.39-6.29,4.89-2.09,4.89h65C526.6,232.21,530.09,228.71,521,226.61Zm-169.93-7A13.48,13.48,0,0,1,339.18,228c-4.19,0-16.78-.7-16.78-33.56V123.82c0-21.68-16.78-39.16-60.14-39.16-46.85,0-47.55,23.07-47.55,28.67-.7,6.29,2.8,13.28,14.68,13.28,10.49,0,13.29-11.88,14.69-16.08,1.4-4.89,2.1-18.88,21-18.88,16.08,0,25.87,14,26.57,34.27v7.69c0,1.4,0,2.79-.7,3.49v.7h0c-1.4,7-4.89,10.49-11.19,13.29-8.39,4.2-32.86,7.69-35.66,8.39-9.79,2.1-37.06,9.09-36.36,37.76.7,28,28.67,37.77,48.25,37.07,18.88-.7,30.07-8.39,35-12.59,2.8-2.1,2.8-2.1,4.9.7,2.8,2.8,11.89,11.89,33.56,11.89,22.38,0,25.18-10.49,26.58-14C357.37,218.22,352.47,216.13,351.07,219.62Zm-87.41,7.69c-19.58,0-24.48-16.08-24.48-24.47s4.2-23.78,23.78-35c0,0,9.09-5.59,26.57-12.58h1.4a2.44,2.44,0,0,1,.7,1.39h0v1.4h0v.7h0v29.37C291.63,210.53,280.44,227.31,263.66,227.31Zm-67.13-60.84c-7,22.38-20.28,58.75-68.53,60.14-50.35.7-80.42-33.56-81.82-97.2C44.08,61.58,73.45,9.83,118.9,8.43c51-.7,69.24,60.14,69.93,69.23.7,7,9.8,6.3,9.8-.7,0-3.49-4.2-63.63-5.6-70.63s-7-4.19-8.39-1.39c-.7,2.09.7-2.1-2.1,4.19s-10.49,2.8-13.29,2.1C160.86,7.73,144.78-.66,118.9,0,59.46,1.44-1.37,45.5,0,122.42,1.42,197.24,61.56,239.2,117.51,238.5c51.05-.7,79.72-32.86,88.11-69.93C208.42,159.48,199.32,157.38,196.53,166.47Z"/></g></g></g></svg>