<svg xmlns="http://www.w3.org/2000/svg" viewBox="0 0 1002.35 94.37"><defs><style>.cls-1{fill:#fff;}</style></defs><title>GoC-fip-en</title><g id="Layer_2" data-name="Layer 2"><g id="extras"><g id="sig"><path class="cls-1" d="M185.45,93H139V.94h46.48V93ZM93,8s-5.64,11.27-6.58,12.21c-.93,1.41-1.4,1.41-2.81.94-1.41-.94-6.11-3.29-6.11-3.29s4.23,18.31,4.23,19.72c.47,1.41-.94,2.82-2.82,1.41-.47-.47-8.45-9.39-8.45-9.39s-1.88,4.22-2.34,5.16-.94,1.41-1.88.94c-1.41-.47-8.92-1.88-8.92-1.88s2.81,8.92,3.28,10.33c.47.94.94,1.88-.94,2.82l-2.81.94S72.3,61.5,72.77,62c.94.94,1.41.94.94,3.29a29.14,29.14,0,0,0-1.41,5.16s14.55-3.28,16-3.28,2.82.47,2.82,1.87-.94,17.37-.94,17.37h4.7S93.9,70.89,93.9,69c0-1.4,1.41-1.87,2.81-1.87,1.41.47,16,3.28,16,3.28s-.94-3.28-1.41-5.16c-.94-2.35,0-2.82.94-3.29.47-.47,16-14.08,16-14.08L125.35,47c-1.41-.94-.94-1.88-.94-2.82.47-.94,3.29-10.33,3.29-10.33s-7.51,1.41-8.92,1.88c-.94.47-1.41-.47-1.88-.94-.47-.94-2.35-5.16-2.35-5.16s-8,9.39-8.45,9.39c-1.41.94-3.28,0-2.81-1.41,0-1.41,4.22-19.72,4.22-19.72a61.11,61.11,0,0,1-6.1,3.29c-.94.94-1.88.94-2.82-.94C98.59,18.78,93,8,93,8ZM46.48,93V.94H0V93Z"/><path class="cls-1" d="M300.47,38.5h-4.23l-.93-4.23c-3.76,4.23-6.58,5.17-11.27,5.17-11.27,0-17.84-8.92-17.84-19.72C265.73,8.92,272.3,0,283.57,0c8.45,0,15,4.23,16,12.68H293c-.47-5.17-5.17-7.52-9.86-7.52-8,0-11.27,7.05-11.27,14.56,0,7,3.29,14.55,11.27,14.55,6.57,0,10.33-3.75,10.8-10.33H284V18.78h16.43Zm5.16-13.62c0-8.45,5.17-14.55,13.62-14.55s13.61,6.1,13.61,14.55-5.16,14.56-13.61,14.56S305.63,33.33,305.63,24.88Zm21.13,0c0-4.69-2.35-9.39-8-9.39s-8,4.7-8,9.39,2.35,9.86,8,9.86S326.76,29.58,326.76,24.88Zm8.45-13.61h6.57l7.05,21.12h0l6.57-21.12h6.1L352.11,38.5h-6.57Zm34.74,15c0,4.23,2.35,8,7.51,8,3.29,0,5.64-1.41,6.58-4.69h5.63c-1.41,6.1-6.57,9.39-12.21,9.39-8.45,0-13.14-6.11-13.14-14.56,0-8,5.16-14.55,13.14-14.55,8.46,0,14.09,8,12.68,16H370v.47ZM384,22.54a7,7,0,1,0-14.09,0Zm10.8-11.27h5.63v5.16h0c.47-2.81,4.22-6.1,8-6.1h2.35V16c-.94,0-1.88-.47-2.82-.47-4.22,0-7.51,3.29-7.51,9.39V38h-6.1V11.27Zm19.71,0h5.64v4.22h0a9.87,9.87,0,0,1,8.45-4.69c6.1,0,9.86,3.28,9.86,9.39V39h-6.11V21.6c0-4.23-1.87-6.11-5.16-6.11-4.23,0-6.57,3.29-6.57,7v16h-6.11Zm30.05,0h5.63V15h0c1.88-2.81,4.23-4.69,8.46-4.69,3.28,0,6.57,1.41,7.51,4.69a9.87,9.87,0,0,1,8.45-4.69c5.63,0,8.92,2.35,8.92,9.39V38.5h-6.11v-16c0-4.23-.46-7.52-5.16-7.52-4.22,0-5.63,2.82-5.63,7.52v16h-6.11V21.13c0-3.76-.94-5.64-4.69-5.64-3.29,0-6.1,2.35-6.1,7V39h-6.11V11.27Zm50.71,15c0,4.23,2.34,8,7.51,8,3.28,0,5.63-1.41,6.57-4.69H515c-1.4,6.1-6.57,9.39-12.2,9.39-8.45,0-13.15-6.11-13.15-14.56,0-8,5.17-14.55,13.15-14.55,8.45,0,14.08,8,12.67,16H495.31v.47Zm14.08-3.75a7,7,0,1,0-14.08,0Zm10.8-11.27h5.63v4.22h0a9.88,9.88,0,0,1,8.45-4.69c6.11,0,9.86,3.28,9.86,9.39V39H538V21.6c0-4.23-1.88-6.11-5.17-6.11-4.22,0-6.57,3.29-6.57,7v16h-6.1V11.27Zm27.7,0h4.69v-8h6.11v8h5.63V16h-5.63V30.52c0,2.34,0,3.75,2.81,3.75h2.35V39c-1.41,0-2.82.47-3.76.47-6.1,0-7.51-2.35-7.51-7V16h-4.69V11.27ZM265.26,79.34c0-8.45,5.16-14.55,13.61-14.55,8.92,0,13.62,6.1,13.62,14.55S287.32,93.9,278.87,93.9,265.26,87.79,265.26,79.34Zm21.59,0c0-4.69-2.34-9.39-8-9.39-5.16,0-8,4.7-8,9.39s2.35,9.86,8,9.86S286.85,84,286.85,79.34Zm8.46-13.61H300V63.38c0-7,3.76-8,7.51-8,1.88,0,3.29,0,4.23.47v4.69c-.94,0-1.41-.47-2.82-.47s-2.82.47-2.82,2.82v2.82h5.17v4.69H306.1v23H300v-23h-4.69Zm60.09,1.41c-.94-4.23-3.76-7.52-9.39-7.52-8,0-11.27,7.05-11.27,14.56,0,7,3.29,14.55,11.27,14.55,5.63,0,8.92-4.22,9.39-9.86H362c-.47,8.92-6.57,15-16,15-11.27,0-17.84-8.92-17.84-19.72S334.74,54.46,346,54.46c8.45,0,15,4.69,16,12.68Zm34.74,19.71c0,1.41.47,1.88,1.41,1.88H393V93a10.35,10.35,0,0,1-3.76.47c-2.35,0-4.22-.94-4.69-3.29-2.35,2.35-6.11,3.29-9.39,3.29-4.7,0-9.39-2.82-9.39-8,0-7,5.63-8,10.33-8.45,4.22-.94,8-.47,8-3.76s-3.29-3.76-5.64-3.76c-3.28,0-5.63,1.41-6.1,4.23h-6.1c.47-7,6.57-8.92,12.2-8.92,5.17,0,10.8,2.35,10.8,8V86.85Zm-5.63-7.51c-1.88,1.41-4.7.94-7.51,1.41s-4.7,1.41-4.7,4.7c0,2.81,3.29,3.28,5.63,3.28,2.82,0,6.58-1.41,6.58-5.16Zm12.2-13.61h5.64V70h0a9.87,9.87,0,0,1,8.45-4.69c6.1,0,9.86,3.28,9.86,9.39V93.43h-6.11V76.06c0-4.23-1.87-6.11-5.16-6.11-4.23,0-6.57,3.29-6.57,7V93h-6.11ZM449.3,86.85c0,1.41.47,1.88,1.4,1.88h1.41V93a10.3,10.3,0,0,1-3.75.47c-2.35,0-4.23-.94-4.7-3.29-2.35,2.35-6.1,3.29-9.39,3.29-4.69,0-9.39-2.82-9.39-8,0-7,5.64-8,10.33-8.45,4.23-.94,8-.47,8-3.76s-3.28-3.76-5.63-3.76c-3.29,0-5.64,1.41-6.1,4.23h-6.11c.47-7,6.57-8.92,12.21-8.92,5.16,0,10.8,2.35,10.8,8V86.85Zm-6.11-7.51c-1.88,1.41-4.69.94-7.51,1.41S431,82.16,431,85.45c0,2.81,3.28,3.28,5.63,3.28,2.82,0,6.57-1.41,6.57-5.16Zm38,13.62h-5.63V89.2h0c-1.41,3.29-5.17,4.23-8.45,4.23-8.45,0-12.68-6.58-12.68-14.56,0-9.86,6.1-14.08,11.74-14.08,3.28,0,7,1.41,8.92,4.22h0V54.93h6.1V93ZM468.08,89.2c5.16,0,7.51-4.69,7.51-9.86,0-6.1-2.82-9.39-7.51-9.39-5.64,0-7.52,5.17-7.52,9.86S462.91,89.2,468.08,89.2Zm42.72-2.35c0,1.41.47,1.88,1.41,1.88h1.41V93a10.35,10.35,0,0,1-3.76.47c-2.35,0-4.23-.94-4.7-3.29-2.34,2.35-6.1,3.29-9.39,3.29-4.69,0-9.39-2.82-9.39-8,0-7,5.64-8,10.33-8.45,4.23-.94,8-.47,8-3.76s-3.28-3.76-5.63-3.76c-3.29,0-5.63,1.41-6.1,4.23h-6.11c.47-7,6.58-8.92,12.21-8.92,5.17,0,10.8,2.35,10.8,8V86.85Zm-6.11-7.51c-1.87,1.41-4.69.94-7.51,1.41s-4.69,1.41-4.69,4.7c0,2.81,3.28,3.28,5.63,3.28,2.82,0,6.57-1.41,6.57-5.16ZM680.28,38.5h-4.22l-.94-4.23c-3.76,4.23-6.58,5.17-11.27,5.17-11.27,0-17.84-8.92-17.84-19.72S652.58,0,663.85,0c8.45,0,15,4.23,16,12.68h-6.57c-.47-5.17-5.16-7.52-9.86-7.52-8,0-11.27,7.05-11.27,14.56,0,7,3.29,14.55,11.27,14.55,6.57,0,10.33-3.75,10.8-10.33h-9.86V18.78h16Zm5.64-13.62c0-8.45,5.16-14.55,13.61-14.55s13.62,6.1,13.62,14.55S708,39.44,699.53,39.44,685.92,33.33,685.92,24.88Zm21.12,0c0-4.69-2.35-9.39-8-9.39-5.16,0-8,4.7-8,9.39s2.35,9.86,8,9.86S707,29.58,707,24.88ZM742.25,38.5h-6.1V34.74h0a9.08,9.08,0,0,1-8,4.7c-7,0-10.33-3.76-10.33-10.8V11.27h6.1v16.9c0,4.69,1.88,6.57,5.17,6.57,5.16,0,6.57-3.28,6.57-7.51v-16h6.1l.47,27.23ZM746,11.27h6.57l7,21.12h0l6.58-21.12h6.1L762.44,38.5h-6.57Zm33.8,15c0,4.23,2.35,8,7.51,8,3.29,0,5.64-1.41,6.58-4.69h5.63C798.12,35.68,793,39,787.32,39c-8.45,0-13.14-6.11-13.14-14.56,0-8,5.16-14.55,13.14-14.55,8.45,0,14.09,8,12.68,16H779.81v.47Zm14.09-3.75a7,7,0,1,0-14.09,0Zm10.79-11.27h5.64v5.16h0c.47-2.81,4.22-6.1,8-6.1h2.35V16c-.94,0-1.88-.47-2.82-.47-4.23,0-7.51,3.29-7.51,9.39V38h-6.1l.46-26.76Zm18.78,0h5.64v4.22h0a9.87,9.87,0,0,1,8.45-4.69c6.1,0,9.86,3.28,9.86,9.39V39h-6.11V21.6c0-4.23-1.87-6.11-5.16-6.11-4.23,0-6.57,3.29-6.57,7v16h-6.11Zm35.22,15c0,4.23,2.34,8,7.51,8,3.28,0,5.63-1.41,6.57-4.69h5.63C877,35.68,871.83,39,866.2,39c-8.45,0-13.15-6.11-13.15-14.56,0-8,5.17-14.55,13.15-14.55,8.45,0,14.08,8,12.67,16H858.69v.47Zm14.08-3.75a7,7,0,1,0-14.08,0ZM883.1,11.27h5.63V15h0c1.88-2.81,4.23-4.69,8.45-4.69,3.29,0,6.58,1.41,7.51,4.69a9.89,9.89,0,0,1,8.46-4.69c5.63,0,8.92,2.35,8.92,9.39V38.5H916v-16c0-4.23-.47-7.52-5.16-7.52-4.23,0-5.64,2.82-5.64,7.52v16h-6.1V21.13c0-3.76-.94-5.64-4.69-5.64-3.29,0-6.11,2.35-6.11,7V39h-6.1V11.27Zm50.7,15c0,4.23,2.35,8,7.51,8,3.29,0,5.64-1.41,6.58-4.69h5.63C952.11,35.68,947,39,941.31,39c-8.45,0-13.14-6.11-13.14-14.56,0-8,5.16-14.55,13.14-14.55,8.46,0,14.09,8,12.68,16H933.8v.47Zm14.09-3.75a7,7,0,1,0-14.09,0Zm10.8-11.27h5.63v4.22h0a9.87,9.87,0,0,1,8.45-4.69c6.1,0,9.86,3.28,9.86,9.39V39h-6.1V21.6c0-4.23-1.88-6.11-5.17-6.11-4.22,0-6.57,3.29-6.57,7v16h-6.1Zm27.23,0h4.69v-8h6.1v8h5.64V16h-5.64V30.52c0,2.34,0,3.75,2.82,3.75h2.35V39c-1.41,0-2.82.47-3.76.47-6.1,0-7.51-2.35-7.51-7V16h-4.69ZM672.3,93h-5.63V89.2h0c-1.41,3.29-5.17,4.23-8.45,4.23-8.45,0-12.68-6.58-12.68-14.56,0-9.86,5.63-14.08,11.74-14.08,3.28,0,7,1.41,8.92,4.22h0V54.93h6.1ZM658.69,89.2c5.16,0,7.51-4.69,7.51-9.86,0-6.1-2.82-9.39-7.51-9.39-5.64,0-7.52,5.17-7.52,9.86S653.52,89.2,658.69,89.2ZM702.82,93h-6.11V89.2h0a9.07,9.07,0,0,1-8,4.7c-7,0-10.33-3.76-10.33-10.8V65.73h6.11v16.9c0,4.69,1.87,6.57,5.16,6.57,5.17,0,6.57-3.28,6.57-7.51v-16h6.11V93Zm47.41-25.82c-.93-4.23-3.75-7.52-9.38-7.52-8,0-11.27,7.05-11.27,14.56,0,7,3.28,14.55,11.27,14.55,6.1,0,8.92-4.22,9.38-9.86h6.58c-.47,8.92-7,15.5-16,15.5-11.27,0-17.85-8.92-17.85-19.72s6.58-19.72,17.85-19.72c8.45,0,15,4.69,16,12.68h-6.58Zm34.28,19.71c0,1.41.47,1.88,1.41,1.88h1.4V93a10.27,10.27,0,0,1-3.75.47c-2.35,0-4.23-.94-4.7-3.29-2.34,2.35-6.1,3.29-9.39,3.29-4.69,0-9.39-2.82-9.39-8,0-7,5.64-8,10.33-8.45,4.23-.94,8-.47,8-3.76s-3.28-3.76-5.63-3.76c-3.29,0-5.63,1.41-6.1,4.23h-6.11c.47-7,6.58-8.92,12.21-8.92,5.16,0,10.8,2.35,10.8,8V86.85Zm-6.11-7.51c-1.87,1.41-4.69.94-7.51,1.41s-4.69,1.41-4.69,4.7c0,2.81,3.28,3.28,5.63,3.28,2.82,0,6.57-1.41,6.57-5.16V79.34Zm13.15-13.61h5.63V70h0a9.88,9.88,0,0,1,8.45-4.69c6.11,0,9.86,3.28,9.86,9.39V93.43h-6.1V76.06c0-4.23-1.88-6.11-5.16-6.11-4.23,0-6.58,3.29-6.58,7V93h-6.1Zm52.11,21.12c0,1.41.47,1.88,1.41,1.88h1.41V93a10.35,10.35,0,0,1-3.76.47c-2.34,0-4.22-.94-4.69-3.29-2.35,2.35-6.11,3.29-9.39,3.29-4.7,0-9.39-2.82-9.39-8,0-7,5.63-8,10.33-8.45,4.22-.94,8-.47,8-3.76s-3.29-3.76-5.64-3.76c-3.28,0-5.63,1.41-6.1,4.23h-6.1c.47-7,6.57-8.92,12.2-8.92,5.17,0,10.8,2.35,10.8,8V86.85Zm-6.1-7.51c-1.88,1.41-4.7.94-7.51,1.41s-4.7,1.41-4.7,4.7c0,2.81,3.29,3.28,5.64,3.28,2.81,0,6.57-1.41,6.57-5.16V79.34ZM876.06,93h-5.64V89.2h0c-1.41,3.29-5.16,4.23-8.45,4.23-8.45,0-12.67-6.58-12.67-14.56,0-9.86,6.1-14.08,11.73-14.08,3.29,0,7.05,1.41,8.92,4.22h0V54.93h6.11ZM862.44,89.2c5.17,0,7.51-4.69,7.51-9.86,0-6.1-2.81-9.39-7.51-9.39-5.63,0-7.51,5.17-7.51,9.86S857.28,89.2,862.44,89.2Zm42.72-2.35c0,1.41.47,1.88,1.41,1.88H908V93a10.32,10.32,0,0,1-3.75.47c-2.35,0-4.23-.94-4.7-3.29-2.35,2.35-6.1,3.29-9.39,3.29-4.69,0-9.39-2.82-9.39-8,0-7,5.63-8,10.33-8.45,4.23-.94,8-.47,8-3.76s-3.29-3.76-5.63-3.76c-3.29,0-5.64,1.41-6.11,4.23h-6.1c.47-7,6.57-8.92,12.21-8.92,5.16,0,10.8,2.35,10.8,8V86.85Zm-6.1-7.51c-1.88,1.41-4.69.94-7.51,1.41s-4.7,1.41-4.7,4.7c0,2.81,3.29,3.28,5.64,3.28,2.82,0,6.57-1.41,6.57-5.16V79.34Z"/></g></g></g></svg>