<?xml version="1.0" encoding="utf-8"?>
<!-- Generator: Adobe Illustrator 22.0.1, SVG Export Plug-In . SVG Version: 6.00 Build 0)  -->
<svg version="1.1" id="Layer_1" xmlns="http://www.w3.org/2000/svg" xmlns:xlink="http://www.w3.org/1999/xlink" x="0px" y="0px"
	 viewBox="0 0 504 512" style="enable-background:new 0 0 504 512;" xml:space="preserve">
<style type="text/css">
	.st0{fill:#FCEE21;}
	.st1{fill:#ED1E79;}
</style>
<path class="st0" d="M323.5,398.5c-5.6-20.3-2.3-42,9-59.7c29.7-46.3,98.7-45.5,127.8,4.3c6.4,0.1,12.6,1.4,18.6,2.9
	c10.9-27.9,17.1-58.2,17.1-90C496,119,385,8,248,8S0,119,0,256s111,248,248,248c35.4,0,68.9-7.5,99.4-20.9
	C347.1,482.4,323.5,398.5,323.5,398.5z"/>
<path class="st1" d="M501.1,402.5c-8-20.8-31.5-31.5-53.1-25.9l-8.4,2.2l-2.3-8.4c-5.9-21.4-27-36.5-49-33
	c-25.2,4-40.6,28.6-34,52.6l22.9,82.6c1.5,5.3,7,8.5,12.4,7.1l83-21.5C496.7,451.9,510.3,426.4,501.1,402.5L501.1,402.5z"/>
<circle cx="168" cy="208" r="32"/>
<path d="M288,396c0,19.2-28.7,41.5-71.5,44c-8.5,0.8-12.1-11.8-3.6-15.4l17-7.2c13-5.5,20.8-13.5,20.8-21.5s-7.8-16-20.8-21.5
	l-17-7.2c-6-2.5-5.7-12.3,0-14.8l17-7.2c13-5.5,20.8-13.5,20.8-21.5s-7.8-16-20.8-21.5l-17-7.2c-8.8-3.7-4.6-16.6,3.6-15.4
	c42.8,2.5,71.5,24.8,71.5,44c0,13-13.4,27.3-35.2,36C274.6,368.7,288,383,288,396z"/>
<path d="M304,217c-8.3,7.4-21.6,0.4-19.8-10.8c4-25.2,34.2-42.1,59.9-42.1S400,181,404,206.2c1.7,11.1-11.3,18.3-19.8,10.8l-9.5-8.5
	c-14.8-13.2-46.2-13.2-61,0L304,217z"/>
</svg>
