<svg xmlns="http://www.w3.org/2000/svg" xmlns:xlink="http://www.w3.org/1999/xlink" viewBox="0 0 97.75 97.74"><defs><style>.cls-1{fill:url(#linear-gradient);}.cls-2{fill:url(#linear-gradient-2);}.cls-3{fill:url(#linear-gradient-3);}.cls-4{fill:#1f3269;}</style><linearGradient id="linear-gradient" x1="44.62" y1="39.15" x2="72.58" y2="39.15" gradientUnits="userSpaceOnUse"><stop offset="0" stop-color="#e25456"/><stop offset="1" stop-color="#d84190"/></linearGradient><linearGradient id="linear-gradient-2" x1="44.62" y1="26.56" x2="97.75" y2="26.56" xlink:href="#linear-gradient"/><linearGradient id="linear-gradient-3" x1="27.55" y1="46.12" x2="75.71" y2="46.12" gradientUnits="userSpaceOnUse"><stop offset="0" stop-color="#51e7f2"/><stop offset="1" stop-color="#469ee1"/></linearGradient></defs><title>logomark</title><g id="Layer_2" data-name="Layer 2"><g id="extras"><path class="cls-1" d="M72.58,53.13h-28v-28A48.19,48.19,0,0,1,72.58,53.13Z"/><path class="cls-2" d="M97.75,53.13H77.45A52.94,52.94,0,0,0,44.62,20.3V0A53.13,53.13,0,0,1,97.75,53.13Z"/><path class="cls-3" d="M75.71,70.2H27.55V22A48.17,48.17,0,0,1,75.71,70.2Z"/><path class="cls-4" d="M27.54,97.74A27.54,27.54,0,1,1,55.07,70.2,27.57,27.57,0,0,1,27.54,97.74Zm0-48.19A20.66,20.66,0,1,0,48.19,70.2,20.68,20.68,0,0,0,27.54,49.55Z"/></g></g></svg>