<svg xmlns="http://www.w3.org/2000/svg" xmlns:xlink="http://www.w3.org/1999/xlink" viewBox="0 0 319.42 71.65"><defs><style>.cls-1{fill:#e25456;}.cls-2{fill:#fff;}.cls-3{fill:url(#linear-gradient);}.cls-4{fill:url(#linear-gradient-2);}.cls-5{fill:url(#linear-gradient-3);}</style><linearGradient id="linear-gradient" x1="32.71" y1="28.7" x2="53.21" y2="28.7" gradientUnits="userSpaceOnUse"><stop offset="0" stop-color="#e25456"/><stop offset="1" stop-color="#d84190"/></linearGradient><linearGradient id="linear-gradient-2" x1="32.71" y1="19.47" x2="71.66" y2="19.47" xlink:href="#linear-gradient"/><linearGradient id="linear-gradient-3" x1="20.19" y1="33.81" x2="55.5" y2="33.81" gradientUnits="userSpaceOnUse"><stop offset="0" stop-color="#51e7f2"/><stop offset="1" stop-color="#469ee1"/></linearGradient></defs><title>logo-header</title><g id="Layer_2" data-name="Layer 2"><g id="extras"><path class="cls-1" d="M246.11,43.34a2.71,2.71,0,0,0,.88-.14,2.29,2.29,0,0,0,.7-.4,1.83,1.83,0,0,0,.45-.61,2.09,2.09,0,0,0,.18-.81h3.29a4.45,4.45,0,0,1-.44,1.93A4.6,4.6,0,0,1,250,44.82a5.13,5.13,0,0,1-1.72,1,6.19,6.19,0,0,1-2.13.36,6.41,6.41,0,0,1-2.68-.52,5.16,5.16,0,0,1-1.89-1.41,5.9,5.9,0,0,1-1.13-2.1,8.81,8.81,0,0,1-.38-2.61v-.34a8.81,8.81,0,0,1,.38-2.61,6,6,0,0,1,1.13-2.11,5.3,5.3,0,0,1,1.89-1.42,6.42,6.42,0,0,1,2.65-.52,6.54,6.54,0,0,1,2.22.36,4.87,4.87,0,0,1,1.72,1,4.75,4.75,0,0,1,1.12,1.62,5.61,5.61,0,0,1,.41,2.13h-3.29a2.65,2.65,0,0,0-.17-.89,2.14,2.14,0,0,0-.43-.73,2,2,0,0,0-.69-.49,2.33,2.33,0,0,0-.95-.18,2.06,2.06,0,0,0-2,1.16,4,4,0,0,0-.37,1.22,11.07,11.07,0,0,0-.1,1.43v.34a11.13,11.13,0,0,0,.1,1.45,3.82,3.82,0,0,0,.37,1.21,2.2,2.2,0,0,0,.76.84A2.4,2.4,0,0,0,246.11,43.34Z"/><path class="cls-1" d="M261.23,45.92a3.77,3.77,0,0,1-.35-1.17,4.61,4.61,0,0,1-1.34,1,4.26,4.26,0,0,1-2,.42,5.28,5.28,0,0,1-1.76-.29,4.41,4.41,0,0,1-1.42-.82,3.71,3.71,0,0,1-.95-1.24,3.81,3.81,0,0,1-.34-1.59,4.1,4.1,0,0,1,.39-1.83A3.46,3.46,0,0,1,254.62,39a5.52,5.52,0,0,1,1.91-.86,10.81,10.81,0,0,1,2.64-.29h1.57v-.75a2.19,2.19,0,0,0-.47-1.46,1.87,1.87,0,0,0-1.48-.55,2.12,2.12,0,0,0-1.39.43,1.42,1.42,0,0,0-.5,1.17h-3.51a3.52,3.52,0,0,1,.39-1.62,4.08,4.08,0,0,1,1.12-1.34,5.67,5.67,0,0,1,1.77-.9,7.46,7.46,0,0,1,2.3-.34,7.15,7.15,0,0,1,2.12.3,4.64,4.64,0,0,1,1.67.86,4,4,0,0,1,1.1,1.45,4.73,4.73,0,0,1,.4,2v5.57c0,.37,0,.71,0,1s.05.56.09.8a4.76,4.76,0,0,0,.16.65,4.38,4.38,0,0,0,.23.54v.2Zm-2.9-2.44a2.73,2.73,0,0,0,.83-.11,3.11,3.11,0,0,0,.69-.28,2.76,2.76,0,0,0,.53-.41,2.18,2.18,0,0,0,.36-.47V40h-1.45a4.28,4.28,0,0,0-1.2.15,2.36,2.36,0,0,0-.84.42,1.8,1.8,0,0,0-.49.65,2.09,2.09,0,0,0-.16.81,1.42,1.42,0,0,0,.47,1.08A1.79,1.79,0,0,0,258.33,43.48Z"/><path class="cls-1" d="M270.19,32.78l.11,1.52A4.52,4.52,0,0,1,271.94,33a5,5,0,0,1,2.14-.46,5.09,5.09,0,0,1,1.7.27,3.1,3.1,0,0,1,1.31.85,3.88,3.88,0,0,1,.84,1.56,8,8,0,0,1,.3,2.35v8.36h-3.51V37.54a3.08,3.08,0,0,0-.14-1,1.54,1.54,0,0,0-.4-.66,1.61,1.61,0,0,0-.66-.35,3.49,3.49,0,0,0-.9-.1,2.46,2.46,0,0,0-1.33.34,2.53,2.53,0,0,0-.89.92v9.27h-3.52V32.78Z"/><path class="cls-1" d="M288.51,45.92a3.77,3.77,0,0,1-.35-1.17,4.61,4.61,0,0,1-1.34,1,4.26,4.26,0,0,1-2,.42,5.39,5.39,0,0,1-1.77-.29,4.52,4.52,0,0,1-1.42-.82,3.81,3.81,0,0,1-.94-1.24,3.66,3.66,0,0,1-.34-1.59,4.24,4.24,0,0,1,.38-1.83A3.57,3.57,0,0,1,281.9,39a5.55,5.55,0,0,1,1.9-.86,11,11,0,0,1,2.65-.29H288v-.75a2.18,2.18,0,0,0-.46-1.46,1.88,1.88,0,0,0-1.48-.55,2.1,2.1,0,0,0-1.39.43,1.43,1.43,0,0,0-.51,1.17h-3.51a3.41,3.41,0,0,1,.4-1.62,4.08,4.08,0,0,1,1.12-1.34,5.72,5.72,0,0,1,1.76-.9,7.57,7.57,0,0,1,2.31-.34,7.19,7.19,0,0,1,2.12.3,4.81,4.81,0,0,1,1.67.86,4,4,0,0,1,1.1,1.45,4.73,4.73,0,0,1,.4,2v5.57c0,.37,0,.71,0,1s.06.56.1.8a3.64,3.64,0,0,0,.16.65,3.25,3.25,0,0,0,.23.54v.2Zm-2.9-2.44a2.73,2.73,0,0,0,.83-.11,3.32,3.32,0,0,0,.69-.28,2.76,2.76,0,0,0,.53-.41,1.85,1.85,0,0,0,.35-.47V40h-1.44a4.28,4.28,0,0,0-1.2.15,2.28,2.28,0,0,0-.84.42,1.8,1.8,0,0,0-.49.65,2.09,2.09,0,0,0-.16.81,1.42,1.42,0,0,0,.47,1.08A1.78,1.78,0,0,0,285.61,43.48Z"/><path class="cls-1" d="M293.69,39.25a10.21,10.21,0,0,1,.34-2.73,6.38,6.38,0,0,1,1-2.13A4.42,4.42,0,0,1,296.65,33a4.83,4.83,0,0,1,2.19-.49,4.09,4.09,0,0,1,1.79.38A4.26,4.26,0,0,1,302,34V27.26h3.52V45.92h-3.17l-.17-1.39a4.48,4.48,0,0,1-1.44,1.21,4.22,4.22,0,0,1-1.93.43,4.52,4.52,0,0,1-2.17-.51A4.58,4.58,0,0,1,295,44.27a6.36,6.36,0,0,1-1-2.11,9.71,9.71,0,0,1-.34-2.65Zm3.51.26a7.8,7.8,0,0,0,.13,1.49,4,4,0,0,0,.43,1.21,2.28,2.28,0,0,0,.78.82,2.16,2.16,0,0,0,1.17.29,2.6,2.6,0,0,0,1.42-.36,2.41,2.41,0,0,0,.88-1V36.76a2.41,2.41,0,0,0-.88-1,2.54,2.54,0,0,0-1.39-.36,2.12,2.12,0,0,0-2,1.12,4,4,0,0,0-.44,1.22,8.1,8.1,0,0,0-.14,1.52Z"/><path class="cls-1" d="M315.87,45.92a4.06,4.06,0,0,1-.35-1.17,4.48,4.48,0,0,1-1.34,1,4.25,4.25,0,0,1-2,.42,5.3,5.3,0,0,1-1.77-.29,4.41,4.41,0,0,1-1.42-.82,3.71,3.71,0,0,1-.95-1.24,3.81,3.81,0,0,1-.34-1.59,4.1,4.1,0,0,1,.39-1.83A3.46,3.46,0,0,1,309.26,39a5.52,5.52,0,0,1,1.91-.86,10.81,10.81,0,0,1,2.64-.29h1.57v-.75a2.19,2.19,0,0,0-.47-1.46,1.87,1.87,0,0,0-1.48-.55,2.12,2.12,0,0,0-1.39.43,1.42,1.42,0,0,0-.5,1.17H308a3.52,3.52,0,0,1,.39-1.62,4.08,4.08,0,0,1,1.12-1.34,5.67,5.67,0,0,1,1.77-.9,7.46,7.46,0,0,1,2.3-.34,7.15,7.15,0,0,1,2.12.3,4.77,4.77,0,0,1,1.68.86,4.08,4.08,0,0,1,1.1,1.45,4.89,4.89,0,0,1,.39,2v5.57c0,.37,0,.71,0,1s.05.56.09.8a4.76,4.76,0,0,0,.16.65,4.38,4.38,0,0,0,.23.54v.2ZM313,43.48a2.73,2.73,0,0,0,.83-.11,3.11,3.11,0,0,0,.69-.28,2.76,2.76,0,0,0,.53-.41,2.18,2.18,0,0,0,.36-.47V40h-1.45a4.28,4.28,0,0,0-1.2.15,2.36,2.36,0,0,0-.84.42,1.8,1.8,0,0,0-.49.65,2.09,2.09,0,0,0-.15.81,1.41,1.41,0,0,0,.46,1.08A1.79,1.79,0,0,0,313,43.48Z"/><path class="cls-2" d="M92.51,19.66a3.33,3.33,0,0,1,1-2.5,3.8,3.8,0,0,1,2.77-1,4.48,4.48,0,0,1,1.56.25,3.45,3.45,0,0,1,1.2.73,3.32,3.32,0,0,1,.76,1.11,3.7,3.7,0,0,1,.26,1.39,3.8,3.8,0,0,1-.26,1.41,3.32,3.32,0,0,1-.76,1.11,3.43,3.43,0,0,1-1.2.72,4.48,4.48,0,0,1-1.56.26,4.57,4.57,0,0,1-1.57-.26,3.48,3.48,0,0,1-1.19-.72,3.32,3.32,0,0,1-.76-1.11A3.8,3.8,0,0,1,92.51,19.66Zm7.17,31.81H92.9V26.2h6.78Z"/><path class="cls-2" d="M111.56,26.2l.21,2.82a9,9,0,0,1,3.08-2.42,9.53,9.53,0,0,1,4.19-.87,8.46,8.46,0,0,1,4,.91,6.17,6.17,0,0,1,2.7,2.94,8.87,8.87,0,0,1,3.12-2.82,9.11,9.11,0,0,1,4.47-1,10.38,10.38,0,0,1,3.35.51,6.15,6.15,0,0,1,2.57,1.66,7.62,7.62,0,0,1,1.64,3,15.28,15.28,0,0,1,.57,4.49v16.1h-6.77V35.37a6.66,6.66,0,0,0-.27-2.07,3.07,3.07,0,0,0-.76-1.28,2.79,2.79,0,0,0-1.19-.63,7,7,0,0,0-1.59-.17,4.29,4.29,0,0,0-2.62.78,4.76,4.76,0,0,0-1.58,2.11,2.35,2.35,0,0,0,0,.26c0,.09,0,.18,0,.26V51.47H120v-16a7.13,7.13,0,0,0-.26-2.08,2.92,2.92,0,0,0-.75-1.28,2.7,2.7,0,0,0-1.2-.66,6.52,6.52,0,0,0-1.6-.18,4.71,4.71,0,0,0-2.52.63A4.54,4.54,0,0,0,112,33.6V51.47h-6.75V26.2Z"/><path class="cls-2" d="M169.39,39.06a19.35,19.35,0,0,1-.64,5.12,12.62,12.62,0,0,1-1.88,4.07A8.92,8.92,0,0,1,163.8,51a8.74,8.74,0,0,1-4.22,1,8.38,8.38,0,0,1-3.54-.7,7.86,7.86,0,0,1-2.65-2V61.18h-6.75v-35h6.26l.24,2.47a7.82,7.82,0,0,1,6.4-2.94,9.46,9.46,0,0,1,4.25.92,8.54,8.54,0,0,1,3.08,2.62,12.37,12.37,0,0,1,1.88,4.06,20,20,0,0,1,.64,5.24Zm-6.75-.49a14.66,14.66,0,0,0-.27-2.9,7.43,7.43,0,0,0-.85-2.34A4.32,4.32,0,0,0,160,31.78a4.18,4.18,0,0,0-2.25-.56,5.27,5.27,0,0,0-2.72.62,4.1,4.1,0,0,0-1.65,1.81V44A4.53,4.53,0,0,0,155,45.83a5.19,5.19,0,0,0,2.77.66,4.12,4.12,0,0,0,2.25-.58,4.45,4.45,0,0,0,1.5-1.6,8.07,8.07,0,0,0,.83-2.37,15.6,15.6,0,0,0,.25-2.88Z"/><path class="cls-2" d="M188.22,51.47a7.33,7.33,0,0,1-.68-2.27A9,9,0,0,1,185,51.14a8.28,8.28,0,0,1-3.8.79,10,10,0,0,1-3.4-.56A8.32,8.32,0,0,1,175,49.81a7.25,7.25,0,0,1-1.81-2.4,7.11,7.11,0,0,1-.65-3,8.1,8.1,0,0,1,.73-3.53,6.92,6.92,0,0,1,2.21-2.62,10.64,10.64,0,0,1,3.66-1.63,20.65,20.65,0,0,1,5.08-.56h3V34.58a4.15,4.15,0,0,0-.9-2.8,3.55,3.55,0,0,0-2.84-1.05,4,4,0,0,0-2.67.81,2.79,2.79,0,0,0-1,2.25h-6.75a6.65,6.65,0,0,1,.76-3.11,7.64,7.64,0,0,1,2.16-2.57,10.89,10.89,0,0,1,3.38-1.74,15.4,15.4,0,0,1,8.51-.08A9.13,9.13,0,0,1,191.16,28a7.59,7.59,0,0,1,2.11,2.78,9.25,9.25,0,0,1,.76,3.89V45.32c0,.72,0,1.36.07,1.93s.11,1.08.19,1.54a9,9,0,0,0,.3,1.24,6.94,6.94,0,0,0,.45,1v.4Zm-5.59-4.7a5.79,5.79,0,0,0,1.6-.21,5.63,5.63,0,0,0,1.32-.55,4.44,4.44,0,0,0,1-.78,4.29,4.29,0,0,0,.69-.91V40h-2.78a7.92,7.92,0,0,0-2.31.29,4.35,4.35,0,0,0-1.61.81,3.3,3.3,0,0,0-.94,1.24,4,4,0,0,0-.3,1.56,2.65,2.65,0,0,0,.89,2.07A3.41,3.41,0,0,0,182.63,46.77Z"/><path class="cls-2" d="M209.73,46.49a5.09,5.09,0,0,0,1.7-.27,3.86,3.86,0,0,0,1.33-.76,3.32,3.32,0,0,0,.88-1.18,4,4,0,0,0,.34-1.55h6.33a8.77,8.77,0,0,1-.84,3.7,9.13,9.13,0,0,1-2.22,2.92,10.3,10.3,0,0,1-3.31,1.91,12.16,12.16,0,0,1-4.1.67,12.36,12.36,0,0,1-5.13-1,10.09,10.09,0,0,1-3.65-2.71,11.47,11.47,0,0,1-2.17-4,16.85,16.85,0,0,1-.72-5v-.65a16.92,16.92,0,0,1,.72-5,11.61,11.61,0,0,1,2.17-4.07,10.21,10.21,0,0,1,3.63-2.72,12.29,12.29,0,0,1,5.11-1,12.61,12.61,0,0,1,4.26.69,9.57,9.57,0,0,1,3.3,2,8.93,8.93,0,0,1,2.15,3.12,10.74,10.74,0,0,1,.8,4.1H214a5.41,5.41,0,0,0-.32-1.72,4.1,4.1,0,0,0-.83-1.4,3.93,3.93,0,0,0-1.33-1,4.54,4.54,0,0,0-1.82-.35,4,4,0,0,0-3.87,2.23,7.44,7.44,0,0,0-.71,2.35,20.64,20.64,0,0,0-.18,2.76v.65A20.72,20.72,0,0,0,205.1,42a7.3,7.3,0,0,0,.71,2.34,4.25,4.25,0,0,0,1.46,1.6A4.59,4.59,0,0,0,209.73,46.49Z"/><path class="cls-2" d="M232.24,20V26.2h4.32v4.95h-4.32V43.76a4.77,4.77,0,0,0,.16,1.31,1.82,1.82,0,0,0,.49.8,1.72,1.72,0,0,0,.81.4,5.39,5.39,0,0,0,1.13.1c.41,0,.78,0,1.11,0a8.18,8.18,0,0,0,.88-.12v5.12a16.46,16.46,0,0,1-1.83.43,14,14,0,0,1-2.26.17,10,10,0,0,1-3-.41,5.5,5.5,0,0,1-3.73-3.6,10,10,0,0,1-.52-3.44V31.15H221.8V26.2h3.69V20Z"/><path class="cls-3" d="M53.21,38.94H32.71V18.45A35.4,35.4,0,0,1,53.21,38.94Z"/><path class="cls-4" d="M71.66,38.94H56.77A38.82,38.82,0,0,0,32.71,14.88V0A38.94,38.94,0,0,1,71.66,38.94Z"/><path class="cls-5" d="M55.5,51.47H20.19V16.16A35.28,35.28,0,0,1,55.5,51.47Z"/><path class="cls-2" d="M20.18,71.65a20.19,20.19,0,0,1-3.83-40,17.1,17.1,0,0,1,1.94-.27c.66-.06,1.28-.09,1.89-.09a20.23,20.23,0,0,1,20.2,20.19c0,.62,0,1.26-.09,1.91A18.5,18.5,0,0,1,40,55.32,20.2,20.2,0,0,1,20.18,71.65Zm0-35.33c-.46,0-.94,0-1.46.07a12.94,12.94,0,0,0-1.41.21A15.14,15.14,0,1,0,35.06,54.35a13.85,13.85,0,0,0,.2-1.42c.05-.52.07-1,.07-1.46A15.18,15.18,0,0,0,20.19,36.32Z"/></g></g></svg>