<svg xmlns="http://www.w3.org/2000/svg" xmlns:xlink="http://www.w3.org/1999/xlink" viewBox="0 0 233.32 72.27"><defs><style>.cls-1{fill:url(#linear-gradient);}.cls-2{fill:url(#linear-gradient-2);}.cls-3{fill:url(#linear-gradient-3);}.cls-4{fill:#fff;}.cls-5{fill:#e25456;}</style><linearGradient id="linear-gradient" x1="32.71" y1="28.7" x2="53.21" y2="28.7" gradientUnits="userSpaceOnUse"><stop offset="0" stop-color="#e25456"/><stop offset="1" stop-color="#d84190"/></linearGradient><linearGradient id="linear-gradient-2" x1="32.71" y1="19.47" x2="71.66" y2="19.47" xlink:href="#linear-gradient"/><linearGradient id="linear-gradient-3" x1="20.19" y1="33.81" x2="55.5" y2="33.81" gradientUnits="userSpaceOnUse"><stop offset="0" stop-color="#51e7f2"/><stop offset="1" stop-color="#469ee1"/></linearGradient></defs><title>logo-footer</title><g id="Layer_2" data-name="Layer 2"><g id="extras"><path class="cls-1" d="M53.21,38.94H32.71V18.45A35.4,35.4,0,0,1,53.21,38.94Z"/><path class="cls-2" d="M71.66,38.94H56.77A38.82,38.82,0,0,0,32.71,14.88V0A38.94,38.94,0,0,1,71.66,38.94Z"/><path class="cls-3" d="M55.5,51.47H20.19V16.16A35.28,35.28,0,0,1,55.5,51.47Z"/><path class="cls-4" d="M20.18,71.65a20.19,20.19,0,0,1-3.83-40,17.1,17.1,0,0,1,1.94-.27c.66-.06,1.28-.09,1.89-.09a20.23,20.23,0,0,1,20.2,20.19c0,.62,0,1.26-.09,1.91A18.5,18.5,0,0,1,40,55.32,20.2,20.2,0,0,1,20.18,71.65Zm0-35.33c-.46,0-.94,0-1.46.07a12.94,12.94,0,0,0-1.41.21A15.14,15.14,0,1,0,35.06,54.35a13.85,13.85,0,0,0,.2-1.42c.05-.52.07-1,.07-1.46A15.18,15.18,0,0,0,20.19,36.32Z"/><path class="cls-5" d="M159.6,69.43a2.27,2.27,0,0,0,1.58-.53,1.84,1.84,0,0,0,.63-1.42h3.3a4.51,4.51,0,0,1-.73,2.45,4.82,4.82,0,0,1-2,1.72,6.15,6.15,0,0,1-2.76.62,5.69,5.69,0,0,1-4.44-1.8,7.05,7.05,0,0,1-1.63-5v-.23a7,7,0,0,1,1.62-4.85,5.64,5.64,0,0,1,4.43-1.81,5.51,5.51,0,0,1,4,1.41,5,5,0,0,1,1.52,3.73h-3.3a2.38,2.38,0,0,0-.63-1.67,2.12,2.12,0,0,0-1.6-.64,2.09,2.09,0,0,0-1.85.9,5.13,5.13,0,0,0-.63,2.9v.37a5.3,5.3,0,0,0,.62,2.92A2.13,2.13,0,0,0,159.6,69.43Z"/><path class="cls-5" d="M174.73,72a3.83,3.83,0,0,1-.35-1.18,4.25,4.25,0,0,1-3.32,1.43,4.69,4.69,0,0,1-3.2-1.12,3.6,3.6,0,0,1-1.27-2.82,3.74,3.74,0,0,1,1.55-3.21A7.68,7.68,0,0,1,172.62,64h1.61v-.75a2.12,2.12,0,0,0-.47-1.46,1.84,1.84,0,0,0-1.47-.55,2,2,0,0,0-1.39.43,1.43,1.43,0,0,0-.51,1.16h-3.51a3.53,3.53,0,0,1,.71-2.11,4.55,4.55,0,0,1,2-1.52,7.23,7.23,0,0,1,2.89-.56,5.76,5.76,0,0,1,3.86,1.22,4.29,4.29,0,0,1,1.43,3.44V69a6.22,6.22,0,0,0,.52,2.84V72Zm-2.9-2.44a3.05,3.05,0,0,0,1.43-.35,2.24,2.24,0,0,0,1-.93V66h-1.31c-1.76,0-2.69.61-2.81,1.83v.2a1.39,1.39,0,0,0,.46,1.08A1.78,1.78,0,0,0,171.83,69.58Z"/><path class="cls-5" d="M183.69,58.88l.11,1.51a4.6,4.6,0,0,1,3.77-1.76,3.8,3.8,0,0,1,3.11,1.23,5.69,5.69,0,0,1,1,3.67V72h-3.51V63.61a2.26,2.26,0,0,0-.49-1.62,2.18,2.18,0,0,0-1.61-.5,2.43,2.43,0,0,0-2.23,1.26V72h-3.51V58.88Z"/><path class="cls-5" d="M202,72a3.83,3.83,0,0,1-.35-1.18,4.25,4.25,0,0,1-3.32,1.43,4.68,4.68,0,0,1-3.2-1.12,3.6,3.6,0,0,1-1.27-2.82,3.71,3.71,0,0,1,1.55-3.21A7.67,7.67,0,0,1,199.89,64h1.62v-.75a2.17,2.17,0,0,0-.47-1.46,1.84,1.84,0,0,0-1.47-.55,2,2,0,0,0-1.39.43,1.43,1.43,0,0,0-.51,1.16h-3.51a3.52,3.52,0,0,1,.7-2.11,4.59,4.59,0,0,1,2-1.52,7.23,7.23,0,0,1,2.89-.56,5.76,5.76,0,0,1,3.86,1.22A4.29,4.29,0,0,1,205,63.29V69a6.34,6.34,0,0,0,.53,2.84V72Zm-2.9-2.44a3.05,3.05,0,0,0,1.43-.35,2.24,2.24,0,0,0,1-.93V66H200.2c-1.76,0-2.7.61-2.81,1.83v.2a1.39,1.39,0,0,0,.46,1.08A1.78,1.78,0,0,0,199.11,69.58Z"/><path class="cls-5" d="M207.18,65.35a7.89,7.89,0,0,1,1.38-4.89,4.48,4.48,0,0,1,3.78-1.83,4,4,0,0,1,3.17,1.44V53.36H219V72h-3.17l-.17-1.39a4.14,4.14,0,0,1-3.38,1.64,4.44,4.44,0,0,1-3.72-1.83A8.17,8.17,0,0,1,207.18,65.35Zm3.52.26a5.19,5.19,0,0,0,.64,2.84,2.08,2.08,0,0,0,1.87,1,2.35,2.35,0,0,0,2.3-1.37v-5.2a2.33,2.33,0,0,0-2.27-1.37C211.54,61.49,210.7,62.86,210.7,65.61Z"/><path class="cls-5" d="M229.37,72a3.83,3.83,0,0,1-.35-1.18,4.25,4.25,0,0,1-3.32,1.43,4.69,4.69,0,0,1-3.2-1.12,3.6,3.6,0,0,1-1.27-2.82,3.74,3.74,0,0,1,1.55-3.21A7.68,7.68,0,0,1,227.26,64h1.61v-.75a2.17,2.17,0,0,0-.46-1.46,1.88,1.88,0,0,0-1.48-.55,2,2,0,0,0-1.39.43,1.43,1.43,0,0,0-.51,1.16h-3.51a3.53,3.53,0,0,1,.71-2.11,4.55,4.55,0,0,1,2-1.52,7.23,7.23,0,0,1,2.89-.56A5.76,5.76,0,0,1,231,59.85a4.29,4.29,0,0,1,1.43,3.44V69a6.22,6.22,0,0,0,.52,2.84V72Zm-2.9-2.44a3,3,0,0,0,1.43-.35,2.24,2.24,0,0,0,1-.93V66h-1.31c-1.76,0-2.69.61-2.81,1.83v.2a1.42,1.42,0,0,0,.46,1.08A1.78,1.78,0,0,0,226.47,69.58Z"/><path class="cls-4" d="M89,19.75a3.33,3.33,0,0,1,1-2.5,4.38,4.38,0,0,1,5.52,0,3.3,3.3,0,0,1,1,2.5,3.35,3.35,0,0,1-1,2.53,4.33,4.33,0,0,1-5.49,0A3.35,3.35,0,0,1,89,19.75Zm7.17,31.81H89.4V26.29h6.77Z"/><path class="cls-4" d="M108.06,26.29l.21,2.83a8.86,8.86,0,0,1,7.26-3.29c3.26,0,5.49,1.28,6.71,3.85a8.66,8.66,0,0,1,7.59-3.85q4.11,0,6.12,2.39t2,7.21V51.56h-6.78V35.45a4.81,4.81,0,0,0-.84-3.14,3.73,3.73,0,0,0-3-1,4.21,4.21,0,0,0-4.21,2.89l0,17.35h-6.74V35.47a4.71,4.71,0,0,0-.87-3.17,3.75,3.75,0,0,0-2.94-1,4.37,4.37,0,0,0-4.16,2.38V51.56h-6.75V26.29Z"/><path class="cls-4" d="M165.89,39.16q0,5.84-2.65,9.36A8.52,8.52,0,0,1,156.08,52a7.89,7.89,0,0,1-6.19-2.66V61.28h-6.75v-35h6.26l.23,2.48a8,8,0,0,1,6.4-2.94,8.57,8.57,0,0,1,7.27,3.45q2.58,3.46,2.59,9.53Zm-6.75-.49a10,10,0,0,0-1.25-5.44,4.05,4.05,0,0,0-3.63-1.91,4.43,4.43,0,0,0-4.37,2.42V44.09a4.49,4.49,0,0,0,4.41,2.5Q159.14,46.59,159.14,38.67Z"/><path class="cls-4" d="M184.71,51.56A7.46,7.46,0,0,1,184,49.3,8.18,8.18,0,0,1,177.66,52a8.91,8.91,0,0,1-6.15-2.15,6.91,6.91,0,0,1-2.45-5.42,7.15,7.15,0,0,1,3-6.16c2-1.43,4.86-2.16,8.61-2.17h3.1V34.68a4.15,4.15,0,0,0-.89-2.8A3.52,3.52,0,0,0,180,30.82a4.07,4.07,0,0,0-2.68.82,2.79,2.79,0,0,0-1,2.24h-6.75A6.8,6.8,0,0,1,171,29.82a9,9,0,0,1,3.83-2.93,13.92,13.92,0,0,1,5.56-1.06,11,11,0,0,1,7.41,2.34,8.23,8.23,0,0,1,2.75,6.6v11a12.08,12.08,0,0,0,1,5.44v.39Zm-5.58-4.69a5.75,5.75,0,0,0,2.76-.67,4.28,4.28,0,0,0,1.86-1.78V40.07h-2.52c-3.38,0-5.17,1.17-5.39,3.51l0,.39a2.71,2.71,0,0,0,.89,2.08A3.42,3.42,0,0,0,179.13,46.87Z"/><path class="cls-4" d="M206.22,46.59a4.41,4.41,0,0,0,3-1,3.57,3.57,0,0,0,1.21-2.73h6.33a8.63,8.63,0,0,1-1.4,4.71,9.2,9.2,0,0,1-3.77,3.31A11.77,11.77,0,0,1,206.34,52a11,11,0,0,1-8.55-3.44q-3.12-3.45-3.13-9.52v-.44q0-5.85,3.11-9.32a10.83,10.83,0,0,1,8.52-3.48,10.69,10.69,0,0,1,7.61,2.69,9.59,9.59,0,0,1,2.9,7.19h-6.33a4.62,4.62,0,0,0-1.21-3.21,4.51,4.51,0,0,0-6.64.49q-1.22,1.71-1.21,5.58v.7q0,3.9,1.19,5.61A4.12,4.12,0,0,0,206.22,46.59Z"/><path class="cls-4" d="M228.74,20.08v6.21h4.32v5h-4.32V43.86a3,3,0,0,0,.54,2,2.7,2.7,0,0,0,2.05.6,10.76,10.76,0,0,0,2-.16v5.11a13.79,13.79,0,0,1-4.09.61q-7.09,0-7.24-7.17V31.25H218.3v-5H222V20.08Z"/><path class="cls-4" d="M89,19.75a3.29,3.29,0,0,1,1-2.49,3.8,3.8,0,0,1,2.77-1,4.56,4.56,0,0,1,1.56.26,3.31,3.31,0,0,1,2,1.83,3.59,3.59,0,0,1,.27,1.39,3.63,3.63,0,0,1-.27,1.42,3.18,3.18,0,0,1-.76,1.11,3.39,3.39,0,0,1-1.19.72,4.84,4.84,0,0,1-3.13,0A3.39,3.39,0,0,1,90,22.28a3.18,3.18,0,0,1-.76-1.11A3.63,3.63,0,0,1,89,19.75Zm7.17,31.81H89.4V26.29h6.77Z"/><path class="cls-4" d="M108.06,26.29l.21,2.83a9,9,0,0,1,3.07-2.42,9.6,9.6,0,0,1,4.19-.87,8.5,8.5,0,0,1,4,.91,6.12,6.12,0,0,1,2.7,2.94,8.91,8.91,0,0,1,3.12-2.83,9.22,9.22,0,0,1,4.47-1,10.42,10.42,0,0,1,3.35.51A6.21,6.21,0,0,1,135.75,28a7.54,7.54,0,0,1,1.63,3,15.25,15.25,0,0,1,.58,4.49V51.56h-6.78V35.47a6.77,6.77,0,0,0-.27-2.08,2.93,2.93,0,0,0-.76-1.27,2.68,2.68,0,0,0-1.19-.63,6.3,6.3,0,0,0-1.58-.18,4.27,4.27,0,0,0-2.62.79,4.8,4.8,0,0,0-1.59,2.11,2.44,2.44,0,0,0,0,.26,2.35,2.35,0,0,1,0,.26V51.56h-6.74v-16a7.13,7.13,0,0,0-.26-2.08,2.92,2.92,0,0,0-.75-1.28,2.72,2.72,0,0,0-1.2-.66,6.56,6.56,0,0,0-1.6-.19,4.62,4.62,0,0,0-2.52.64,4.54,4.54,0,0,0-1.64,1.75V51.56h-6.75V26.29Z"/><path class="cls-4" d="M165.89,39.16a19.83,19.83,0,0,1-.64,5.12,12.62,12.62,0,0,1-1.88,4.07A8.66,8.66,0,0,1,156.08,52a8.38,8.38,0,0,1-3.54-.7,8,8,0,0,1-2.65-2V61.28h-6.75v-35h6.26l.23,2.48a8.42,8.42,0,0,1,2.72-2.17,8.15,8.15,0,0,1,3.68-.77,9.3,9.3,0,0,1,4.25.92,8.54,8.54,0,0,1,3.09,2.61,12.43,12.43,0,0,1,1.88,4.07,20.38,20.38,0,0,1,.64,5.24Zm-6.75-.49a14.84,14.84,0,0,0-.27-2.91,7.46,7.46,0,0,0-.85-2.33,4.32,4.32,0,0,0-1.51-1.55,4.2,4.2,0,0,0-2.25-.57,5.37,5.37,0,0,0-2.72.62,4.21,4.21,0,0,0-1.65,1.81V44.09a4.44,4.44,0,0,0,1.65,1.83,5.08,5.08,0,0,0,2.76.67,4.24,4.24,0,0,0,2.26-.58,4.5,4.5,0,0,0,1.49-1.6,7.8,7.8,0,0,0,.83-2.37,15.66,15.66,0,0,0,.26-2.88Z"/><path class="cls-4" d="M184.71,51.56A7.46,7.46,0,0,1,184,49.3a9,9,0,0,1-2.58,1.94,8.31,8.31,0,0,1-3.8.79,10.19,10.19,0,0,1-3.4-.56,8.32,8.32,0,0,1-2.73-1.56,7.12,7.12,0,0,1-1.81-2.4,7,7,0,0,1-.66-3,8.09,8.09,0,0,1,.74-3.52A6.92,6.92,0,0,1,172,38.32a10.67,10.67,0,0,1,3.65-1.63,20.29,20.29,0,0,1,5.08-.56h3V34.68a4.15,4.15,0,0,0-.89-2.8A3.55,3.55,0,0,0,180,30.82a4.07,4.07,0,0,0-2.68.82,2.79,2.79,0,0,0-1,2.24h-6.75a6.72,6.72,0,0,1,.75-3.1,7.88,7.88,0,0,1,2.16-2.57,11.05,11.05,0,0,1,3.39-1.74,14.3,14.3,0,0,1,4.44-.64,13.84,13.84,0,0,1,4.06.56,9.17,9.17,0,0,1,3.23,1.67,7.61,7.61,0,0,1,2.11,2.78,9.25,9.25,0,0,1,.76,3.89V45.42c0,.72,0,1.36.07,1.93s.11,1.08.19,1.54a6.83,6.83,0,0,0,.3,1.24,7.37,7.37,0,0,0,.44,1v.39Zm-5.58-4.69a5.79,5.79,0,0,0,1.6-.21,5.63,5.63,0,0,0,1.32-.55,4.74,4.74,0,0,0,1-.78,4.58,4.58,0,0,0,.68-.91V40.07H181a8,8,0,0,0-2.32.3,4.43,4.43,0,0,0-1.61.81,3.27,3.27,0,0,0-.93,1.24,4,4,0,0,0-.31,1.55,2.71,2.71,0,0,0,.89,2.08A3.42,3.42,0,0,0,179.13,46.87Z"/><path class="cls-4" d="M206.22,46.59a5.11,5.11,0,0,0,1.71-.27,4,4,0,0,0,1.33-.76,3.55,3.55,0,0,0,.88-1.18,3.83,3.83,0,0,0,.33-1.55h6.33a8.48,8.48,0,0,1-.84,3.7,9,9,0,0,1-2.22,2.92,10,10,0,0,1-3.3,1.9,12,12,0,0,1-4.1.68,12.44,12.44,0,0,1-5.14-1,10.17,10.17,0,0,1-3.64-2.71,11.4,11.4,0,0,1-2.17-4,16.54,16.54,0,0,1-.73-5v-.65a16.71,16.71,0,0,1,.73-5,11.49,11.49,0,0,1,2.17-4.06,10,10,0,0,1,3.63-2.72,12.28,12.28,0,0,1,5.1-1,12.62,12.62,0,0,1,4.27.69,9.42,9.42,0,0,1,3.3,2A8.93,8.93,0,0,1,216,31.61a10.74,10.74,0,0,1,.79,4.1h-6.33a5.41,5.41,0,0,0-.31-1.72,4.16,4.16,0,0,0-.83-1.4,3.93,3.93,0,0,0-1.33-1,4.54,4.54,0,0,0-1.82-.35,4.31,4.31,0,0,0-2.41.61,4.23,4.23,0,0,0-1.46,1.62,7.19,7.19,0,0,0-.71,2.35,19.09,19.09,0,0,0-.19,2.76v.65a19.27,19.27,0,0,0,.19,2.78,6.93,6.93,0,0,0,.71,2.33,4.1,4.1,0,0,0,1.46,1.6A4.47,4.47,0,0,0,206.22,46.59Z"/><path class="cls-4" d="M228.74,20.08v6.21h4.32v4.95h-4.32V43.86a4.3,4.3,0,0,0,.16,1.3,1.65,1.65,0,0,0,1.3,1.21,5.33,5.33,0,0,0,1.13.1c.41,0,.77,0,1.11,0s.63-.07.88-.12v5.11a15,15,0,0,1-1.84.44,13.75,13.75,0,0,1-2.25.17,10.24,10.24,0,0,1-3-.41A5.7,5.7,0,0,1,224,50.33,5.87,5.87,0,0,1,222.5,48a10.2,10.2,0,0,1-.51-3.43V31.24H218.3V26.29H222V20.08Z"/></g></g></svg>