<svg xmlns="http://www.w3.org/2000/svg" xmlns:xlink="http://www.w3.org/1999/xlink" viewBox="0 0 1722.14 1466.19"><defs><style>.cls-1{fill:none;stroke-linecap:round;stroke-linejoin:round;stroke-width:20px;stroke:url(#linear-gradient);}</style><linearGradient id="linear-gradient" x1="861.07" y1="1466.19" x2="861.07" gradientUnits="userSpaceOnUse"><stop offset="0" stop-color="#d84190"/><stop offset="0.83" stop-color="#e25456"/></linearGradient></defs><title>map_1</title><g id="Layer_2" data-name="Layer 2"><g id="Layer_8" data-name="Layer 8"><path class="cls-1" d="M10,607.53l200-274,43,89v334Zm243,149,397.22,91V738.75L432,520.53V468.06L253,422.48Zm-205.49-126v89.2H97V894.61L62.29,929.32v49.21l87.71,164,210,67v-51l-95-155,84-225-96-22Zm217.49,373,95,155v51l93,18,58.9-409.32L349,778.53ZM511.9,818.21,453,1227.53l197.22,14v-394Zm138.32-70.74V847.53H781.83V777.36l87.77-87.78H977.05L671.77,384.3,588,468.06H432v52.47L650.22,738.75M781.83,847.53H650.22v394H794v-145L922.5,968Zm336.51,608.66L1270.5,1304,1042,1075.53V968H922.5L794,1096.53v145H989.82l128.52,126.86ZM1268,1301.53h121.6l138.93-138.94-101.16-101.16,151.27-151.26h-244l85.32-85.31L1282.3,687.23v130.3L1154.14,689.36h-97l-29.78,29.78,54.49,54.49v56.9l47.84,47.84v69.91l-46.49,46.5,39.53,39.53v122.22ZM1578.64,910.7v133.5h133.5ZM432,294.27v133.5H565.5Zm1163,804.34v64.5h64.5ZM610,309.53H909.53V10Zm536.77,351V361H847.23Zm381.66,569.11H1595v-66.55h-66.55Z"/></g></g></svg>