<?xml version="1.0" encoding="utf-8"?>
<!-- Generator: Adobe Illustrator 22.0.1, SVG Export Plug-In . SVG Version: 6.00 Build 0)  -->
<svg version="1.1" id="Layer_1" xmlns="http://www.w3.org/2000/svg" xmlns:xlink="http://www.w3.org/1999/xlink" x="0px" y="0px"
	 viewBox="0 0 512 512" style="enable-background:new 0 0 512 512;" xml:space="preserve">
<style type="text/css">
	.st0{fill:#FFFFFF;}
	.st1{fill:#ED1C24;}
</style>
<path class="st0" d="M512,112c0-36.8-0.8-47.2-11-89.1c-1.4-5.8-5.9-10.3-11.7-11.8C451.4,1.8,440,0,400,0
	c-68.3,0-127.4,39.5-177,96H96c-15.2,0-29,8.6-35.8,22.1l-56,112C-9,256.7,10.3,288,40.1,288h66.3c-6.7,15-12.9,29.8-18.6,44.1
	c-2.4,5.9-1,12.7,3.6,17.2l71.3,71.3c4.5,4.5,11.3,5.9,17.2,3.6c14.3-5.7,29.1-11.9,44.1-18.6v66.3c0,29.7,31.3,49.1,57.9,35.8
	l112-56c13.6-6.8,22.1-20.6,22.1-35.8V289C472.5,239.4,512,180.3,512,112z M53,240l48-96h84.7c-21.1,30.3-39.9,63.1-56.6,96H53z
	 M140.1,330.2C196.8,191.1,293,48,400.1,48c22.6,0,34.7,0,58.8,5.2c5.1,24,5.1,36.2,5.1,58.8c0,107.1-143.1,203.2-282.2,259.9
	L140.1,330.2L140.1,330.2z M368,411l-96,48v-76.2c32.9-16.6,65.7-35.5,96-56.6V411z"/>
<circle class="st1" cx="368" cy="144" r="48"/>
</svg>
